<?xml version="1.0" encoding="UTF-8" standalone="no"?>
<svg
   xmlns:dc="http://purl.org/dc/elements/1.1/"
   xmlns:cc="http://creativecommons.org/ns#"
   xmlns:rdf="http://www.w3.org/1999/02/22-rdf-syntax-ns#"
   xmlns:svg="http://www.w3.org/2000/svg"
   xmlns="http://www.w3.org/2000/svg"
   xmlns:sodipodi="http://sodipodi.sourceforge.net/DTD/sodipodi-0.dtd"
   xmlns:inkscape="http://www.inkscape.org/namespaces/inkscape"
   width="210mm"
   height="297mm"
   viewBox="0 0 744.09448819 1052.3622047"
   id="svg2"
   version="1.1"
   inkscape:version="1.0.1 (c497b03c, 2020-09-10)"
   sodipodi:docname="hands.svg"
   inkscape:export-filename="/Users/francisconunes/Downloads/Skeleton-2.0.4/images/baloon.png"
   inkscape:export-xdpi="97.389999"
   inkscape:export-ydpi="97.389999">
  <defs
     id="defs4">
    <inkscape:path-effect
       effect="bspline"
       id="path-effect1068"
       is_visible="true"
       lpeversion="1"
       weight="33.333333"
       steps="2"
       helper_size="0"
       apply_no_weight="true"
       apply_with_weight="true"
       only_selected="false" />
    <inkscape:path-effect
       effect="bspline"
       id="path-effect1064"
       is_visible="true"
       lpeversion="1"
       weight="33.333333"
       steps="2"
       helper_size="0"
       apply_no_weight="true"
       apply_with_weight="true"
       only_selected="false" />
    <inkscape:path-effect
       effect="powerstroke"
       id="path-effect1027"
       is_visible="true"
       lpeversion="1"
       offset_points="1.0313443,-2.8882438"
       sort_points="true"
       interpolator_type="CentripetalCatmullRom"
       interpolator_beta="0.75"
       start_linecap_type="round"
       linejoin_type="spiro"
       miter_limit="4"
       scale_width="1"
       end_linecap_type="round" />
    <inkscape:path-effect
       effect="simplify"
       id="path-effect1025"
       is_visible="true"
       lpeversion="1"
       steps="1"
       threshold="0.003941788"
       smooth_angles="0"
       helper_size="0"
       simplify_individual_paths="false"
       simplify_just_coalesce="false"
       step="1" />
    <inkscape:path-effect
       effect="powerstroke"
       id="path-effect1004"
       is_visible="true"
       lpeversion="1"
       offset_points="1.0313443,-3.1683872"
       sort_points="true"
       interpolator_type="CentripetalCatmullRom"
       interpolator_beta="0.75"
       start_linecap_type="round"
       linejoin_type="spiro"
       miter_limit="4"
       scale_width="1"
       end_linecap_type="round" />
    <inkscape:path-effect
       effect="simplify"
       id="path-effect1002"
       is_visible="true"
       lpeversion="1"
       steps="1"
       threshold="0.003941788"
       smooth_angles="0"
       helper_size="0"
       simplify_individual_paths="false"
       simplify_just_coalesce="false"
       step="1" />
    <inkscape:path-effect
       effect="powerstroke"
       id="path-effect979"
       is_visible="true"
       lpeversion="1"
       offset_points="1.2652262,-1.7627933"
       sort_points="true"
       interpolator_type="CentripetalCatmullRom"
       interpolator_beta="0.75"
       start_linecap_type="round"
       linejoin_type="spiro"
       miter_limit="4"
       scale_width="1"
       end_linecap_type="round" />
    <inkscape:path-effect
       effect="simplify"
       id="path-effect977"
       is_visible="true"
       lpeversion="1"
       steps="1"
       threshold="0.003941788"
       smooth_angles="0"
       helper_size="0"
       simplify_individual_paths="false"
       simplify_just_coalesce="false"
       step="1" />
    <inkscape:path-effect
       effect="powerstroke"
       id="path-effect970"
       is_visible="true"
       lpeversion="1"
       offset_points="1.5,0.5"
       sort_points="true"
       interpolator_type="CentripetalCatmullRom"
       interpolator_beta="0.75"
       start_linecap_type="round"
       linejoin_type="spiro"
       miter_limit="4"
       scale_width="1"
       end_linecap_type="round" />
    <inkscape:path-effect
       effect="simplify"
       id="path-effect968"
       is_visible="true"
       lpeversion="1"
       steps="1"
       threshold="0.003941788"
       smooth_angles="0"
       helper_size="0"
       simplify_individual_paths="false"
       simplify_just_coalesce="false"
       step="1" />
    <inkscape:path-effect
       effect="powerstroke"
       id="path-effect963"
       is_visible="true"
       lpeversion="1"
       offset_points="1.2693215,7.1344221"
       sort_points="true"
       interpolator_type="CentripetalCatmullRom"
       interpolator_beta="0.75"
       start_linecap_type="round"
       linejoin_type="spiro"
       miter_limit="4"
       scale_width="1"
       end_linecap_type="round" />
    <inkscape:path-effect
       effect="simplify"
       id="path-effect961"
       is_visible="true"
       lpeversion="1"
       steps="1"
       threshold="0.003941788"
       smooth_angles="0"
       helper_size="0"
       simplify_individual_paths="false"
       simplify_just_coalesce="false"
       step="1" />
    <inkscape:path-effect
       effect="powerstroke"
       id="path-effect956"
       is_visible="true"
       lpeversion="1"
       offset_points="0.044018538,7.1344221"
       sort_points="true"
       interpolator_type="CentripetalCatmullRom"
       interpolator_beta="0.75"
       start_linecap_type="round"
       linejoin_type="spiro"
       miter_limit="4"
       scale_width="1"
       end_linecap_type="round" />
    <inkscape:path-effect
       effect="simplify"
       id="path-effect954"
       is_visible="true"
       lpeversion="1"
       steps="1"
       threshold="0.003941788"
       smooth_angles="0"
       helper_size="0"
       simplify_individual_paths="false"
       simplify_just_coalesce="false"
       step="1" />
    <inkscape:path-effect
       effect="powerstroke"
       id="path-effect884"
       is_visible="true"
       lpeversion="1"
       offset_points="1.2446518,5.9031438"
       sort_points="true"
       interpolator_type="CentripetalCatmullRom"
       interpolator_beta="0.75"
       start_linecap_type="round"
       linejoin_type="spiro"
       miter_limit="4"
       scale_width="1"
       end_linecap_type="round" />
    <inkscape:path-effect
       effect="simplify"
       id="path-effect882"
       is_visible="true"
       lpeversion="1"
       steps="1"
       threshold="0.003941788"
       smooth_angles="0"
       helper_size="0"
       simplify_individual_paths="false"
       simplify_just_coalesce="false"
       step="1" />
    <style
       id="style1472">.cls-1{fill:none;stroke:#000;stroke-linecap:round;stroke-linejoin:round;stroke-width:6px;}</style>
  </defs>
  <sodipodi:namedview
     id="base"
     pagecolor="#ffffff"
     bordercolor="#666666"
     borderopacity="1.0"
     inkscape:pageopacity="0.0"
     inkscape:pageshadow="2"
     inkscape:zoom="1.0647586"
     inkscape:cx="297.12732"
     inkscape:cy="607.59581"
     inkscape:document-units="px"
     inkscape:current-layer="layer1"
     showgrid="false"
     inkscape:window-width="1295"
     inkscape:window-height="934"
     inkscape:window-x="1968"
     inkscape:window-y="23"
     inkscape:window-maximized="0"
     inkscape:document-rotation="0" />
  <metadata
     id="metadata7">
    <rdf:RDF>
      <cc:Work
         rdf:about="">
        <dc:format>image/svg+xml</dc:format>
        <dc:type
           rdf:resource="http://purl.org/dc/dcmitype/StillImage" />
        <dc:title />
      </cc:Work>
    </rdf:RDF>
  </metadata>
  <g
     inkscape:label="Layer 1"
     inkscape:groupmode="layer"
     id="layer1">
    <path
       style="fill:#000000"
       d="m 357.97852,444.75085 c -3.24578,-0.20461 -5.77171,2.5404 -5.76758,7.34571 0.004,4.95586 2.86107,34.5681 3.51172,36.39843 0.97877,2.75336 -1.75897,-0.23374 -6.08008,-6.63086 -15.01503,-22.22877 -15.81064,-23.17187 -19.50977,-23.17187 -3.58451,0 -6.42595,3.79632 -5.39062,7.20117 0.67164,2.20876 10.43851,19.77534 14.11523,25.38672 1.73601,2.6495 1.73239,2.68567 -0.18554,1.63281 -1.07944,-0.59258 -4.87644,-4.03408 -8.43555,-7.64843 -5.37733,-5.46081 -7.02901,-6.57227 -9.77149,-6.57227 -2.52318,0 -3.55913,0.57085 -4.40429,2.42578 -1.84949,4.05918 -0.24766,6.98101 9.39453,17.13672 5.08975,5.36081 9.1414,10.12692 9.0039,10.5918 -0.1375,0.46487 0.2,0.8457 0.75,0.8457 0.58847,0 1,3.50874 1,8.52539 0,10.01991 2.20052,17.35387 7,23.32617 l 3.19532,3.97656 c -3.24883,80.44001 -3.71566,182.34085 -1.50977,256.11133 0,0.91419 -2.42546,1.25586 -8.91015,1.25586 l -5.99842,-1.74704 -1.28938,-6.73343 c -6.61521,-35.31362 -10.31186,-46.27833 -23.50141,-121.80926 -1.06428,-4.43891 -2.25038,-11.54127 -2.63477,-15.78321 l -0.69922,-7.71289 c 7.15219,-7.51947 13.80527,-14.44654 20.19922,-22.69336 2.95956,-3.87573 5.01125,-5.22297 8.61328,-10.26953 2.86797,-2.69432 3.08212,-4.21476 0.89844,-6.39843 -3.48483,-3.48483 -10.47964,-0.90588 -17.71484,6.5332 -2.08292,2.14162 -4.61668,3.89453 -5.62891,3.89453 -3.82956,0 -4.43225,-2.51901 -5.22656,-21.82813 -0.42246,-10.26989 -1.01786,-19.99155 -1.32422,-21.60546 -1.17236,-6.1761 -7.20865,-8.86481 -9.69141,-4.31641 -1.15251,2.1114 -1.34206,4.26216 -1.82226,20.75 l -0.18946,6.5 -1.78515,-8 c -0.98267,-4.4 -2.10608,-10.19344 -2.4961,-12.875 -1.21559,-8.35786 -7.64814,-12.45456 -11.15429,-7.10352 -1.21794,1.85883 -1.47885,3.63202 -0.99024,6.75 1.72575,11.01268 3.4324,24.22385 3.16406,24.49219 -0.16411,0.16411 -1.04485,-0.84026 -1.95703,-2.23242 -2.68189,-3.20417 -5.27073,-6.95061 -8.76758,-11.35352 -4.73267,-6.53428 -6.53534,-8.17773 -8.96484,-8.17773 -2.43493,0 -4.87891,2.71805 -4.87891,5.42383 0,2.11719 5.82723,12.10657 11.12891,19.07617 l 2.2832,3 -2.45703,-1.99219 c -1.35093,-1.09633 -4.35838,-3.68383 -6.68359,-5.75 -2.32521,-2.06617 -4.65066,-3.75781 -5.16797,-3.75781 -2.01767,0 -4.20572,1.31921 -5.16797,3.11719 -1.45296,2.71487 0.08,5.14475 9.07227,14.38281 l 7.78711,8 c 3.42031,8.32453 5.16637,16.79128 7.73047,24.87109 6.96332,50.45176 8.85123,69.82342 21.22634,154.76598 l -9.82776,0.58235 h -6.91602 l -4.00976,-0.30859 0.0312,4.30859 h 10.80078 c 5.94059,0 17.08715,-0.75 17.08715,-0.75 -12.53565,-87.62079 -16.85058,-95.8542 -25.10292,-161.87176 -1.34824,-2.22526 -2.20804,-23.53488 -15.87305,-33.24805 -8.07377,-7.77776 -10.5948,-11.25573 -4.69141,-6.4707 12.34019,10.00241 14.91849,11.73683 17.00196,11.43945 1.2251,-0.17487 2.36893,-1.06485 2.54297,-1.97852 0.17404,-0.91367 -3.35078,-7.08535 -7.83399,-13.71484 -4.48321,-6.62948 -7.9812,-12.56422 -7.77344,-13.1875 0.39951,-0.44595 12.62478,15.13037 13.85157,16.62109 3.53157,5.13296 7.34205,7.19852 9.6875,5.25196 1.59577,-1.32437 1.59322,-1.39043 -1.13867,-19.31055 -1.789,-11.73518 -1.94437,-15.5 -0.63477,-15.5 0.52507,0 1.2359,1.6875 1.57812,3.75 0.62343,3.75732 5.40613,26.6501 6.0586,29 0.45549,1.64047 2.56401,1.58874 4.90234,-0.12109 2.14435,-1.56798 3.37098,-9.86794 3.45508,-23.37891 0.0282,-4.5375 0.43696,-8.25 0.90625,-8.25 1.0419,0 2.14434,12.24439 2.15234,23.90039 0.007,11.0743 1.47772,19.9319 3.83594,23.09375 3.657,4.90326 8.06677,3.94398 16.18945,-3.52344 3.27297,-3.00893 6.71382,-5.4707 7.64649,-5.4707 1.39372,0 1.24587,0.48985 -0.82813,2.75 -6.15643,6.70901 -7.28168,8.0289 -10.87695,12.75 -2.09422,2.75 -6.54552,7.92502 -9.89062,11.5 l -6.08204,6.5 v 7.11328 c -3.6e-4,3.91187 1.125,12.63545 2.5,19.38672 20.78438,105.30066 13.00366,74.35149 21.73453,125.38153 l 0.68554,8.22266 12.07032,0.30664 c 7.06074,0.17985 12.57003,-0.10648 13.27343,-0.69141 -1.99377,-66.28548 -0.55235,-180.50509 1.9668,-258.38476 0.0808,-4.54407 -0.33991,-5.69409 -3.37695,-9.24219 -4.37628,-5.1127 -5.82444,-9.96036 -6.53516,-21.87305 l -0.56445,-9.4707 -9.84571,-10.8457 c -5.41468,-5.96583 -9.84375,-11.59881 -9.84375,-12.51758 0,-1.49117 0.24153,-1.46612 2.25,0.23437 1.2375,1.04775 2.58801,2.42908 3.00196,3.07031 1.12938,1.74956 16.02207,13.95941 17.74804,14.55079 1.92926,0.66102 5,-0.91182 5,-2.56055 0,-0.70051 -1.63111,-3.94719 -3.625,-7.21484 -8.70781,-14.27065 -15.375,-26.33734 -15.375,-27.82813 0,-2.29213 1.6344,-1.99577 3.50586,0.63672 4.41761,8.74991 9.95552,14.44615 14.05274,20.73633 4.97606,7.69221 7.34636,9.50506 11.17187,8.54492 2.52125,-0.63279 2.53833,-0.70626 1.82227,-7.83398 -0.39761,-3.9579 -1.11742,-11.69727 -1.59961,-17.19727 -0.4822,-5.5 -1.17742,-11.90493 -1.54492,-14.23242 -0.54914,-3.4779 -0.35943,-4.34889 1.0625,-4.89453 2.30713,-0.88533 3.19785,0.78666 4.01172,7.53125 0.69459,5.75615 4.12804,27.45002 5.11914,32.3457 0.7198,3.55555 4.66765,3.79575 6.88086,0.41797 1.58494,-2.41893 4.48253,-22.38788 4.52343,-31.16797 0.0266,-5.69615 1.29061,-8.60197 2.99805,-6.89453 0.71579,0.71579 1.04197,7.38541 0.95117,19.49219 -0.25136,33.51297 0.19156,38.04897 4.09766,41.95507 4.16894,4.16894 12.76864,1.51112 19.44726,-6.01172 2.49969,-2.81565 8.70474,-6.04101 11.625,-6.04101 1.97157,0 1.79085,0.39974 -1.70898,3.75781 -12.29145,11.89928 -17.82782,21.03616 -30.39453,31.50391 -5.91373,4.72186 -7.21073,6.3559 -6.83985,16.08203 -0.25246,7.08378 0.27064,14.01961 1.72852,22.92773 3.89702,128.89393 5.24168,216.55748 7.95898,230.43946 0.9954,0.99725 17.8992,0.80198 18.91993,-0.21875 10.13857,-34.49386 13.25771,-120.59724 14.43131,-130.40251 1.03716,-16.51063 0.98906,-36.9375 2.83008,-49 l 0.60742,-9 -6.69336,-7 c -3.68154,-3.85 -9.10799,-10.15 -12.0586,-14 -2.95062,-3.85 -6.71822,-8.4625 -8.37304,-10.25 -5.22246,-5.64118 -0.61537,-3.65984 6.51367,2.80078 6.10824,5.53553 7.01535,6.02439 10.66992,5.75 2.98502,-0.22411 4.50823,-0.99054 6.02735,-3.0332 1.79575,-2.41461 2.12385,-4.92085 2.81054,-21.5 0.42751,-10.32173 1.04241,-20.24214 1.36719,-22.04492 1.15776,-6.42644 2.19827,-2.08319 2.75391,11.49414 0.31024,7.58094 0.87699,14.57571 1.25976,15.54297 0.65645,1.65881 5.04637,3.50441 6.01953,2.53124 0.49769,-0.49769 3.91394,-15.92905 5.59961,-25.29101 1.15626,-6.42169 3.85742,-11.02929 3.85742,-6.58008 0,2.47658 -1.27385,10.72541 -3.53515,22.88672 -0.74722,4.01847 -1.12432,7.92038 -0.83594,8.67187 0.68373,1.78179 3.19468,2.7115 5.41797,2.00586 1.58266,-0.50231 8.18561,-8.48376 16.38867,-19.81054 1.61513,-2.23016 3.10633,-3.54233 3.31445,-2.91797 0.20812,0.62436 -3.2498,6.56648 -7.68554,13.20703 -8.73457,13.07613 -9.73287,16.03711 -5.40625,16.03711 2.31786,0 11.7005,-5.92783 14.85742,-9.38672 0.55899,-0.61245 2.12589,-2.01328 3.48242,-3.11328 4.86031,-3.94118 0.17594,1.55331 -7.67383,9 l -7.3789,7 c -1.20574,10.70153 -0.62778,15.93208 -7.16602,25.21289 l -3.09766,3.21094 c 0.002,4.39614 -0.0329,9.08517 -0.10039,14.01136 -0.64367,47.01697 -4.24223,115.63791 -6.78599,157.41654 -1.12752,8.73948 -1.31836,16.8496 -1.31836,16.8496 l 5.95117,0.33008 c 4.68216,-73.96032 7.0822,-111.20275 5.97233,-185.73454 l 5.25585,-7.92382 4.79102,-20.07618 c 5.2628,-5.35046 17.55273,-18.13514 17.55273,-19.48437 0,-6.92714 -4.75258,-7.24923 -12,-0.8125 -2.78672,2.475 -5.28437,4.5 -5.54882,4.5 -0.26444,0 0.62049,-1.6875 1.96484,-3.75 1.34435,-2.0625 4.05021,-6.2141 6.01367,-9.22656 4.04785,-6.21048 4.42892,-8.93469 1.60938,-11.48633 -2.72992,-2.47055 -6.23156,-1.34641 -9.15039,2.93945 -3.01116,3.42888 -4.19747,6.35074 -6.45118,8.58203 -1.40932,1.32399 -3.48682,3.90076 -4.61523,5.72657 -1.12842,1.82581 -2.23063,3.14047 -2.44922,2.92187 -0.49035,-0.49034 1.23383,-14.17754 2.76172,-21.93164 1.40411,-7.1259 -0.33493,-10.77539 -5.13477,-10.77539 -4.2034,0 -5.59948,2.73407 -8.1875,16.04297 -2.16495,11.13326 -2.24699,11.32984 -2.94531,6.95703 -0.39525,-2.475 -0.75217,-7.7121 -0.79297,-11.63867 -0.0894,-8.61026 -2.08638,-12.07732 -6.33984,-11.00977 -5.69886,3.14465 -4.89947,17.02749 -5.60156,23.40235 -0.37103,18.99896 -1.29373,24.7154 -4.29492,26.58789 -1.34329,0.8381 -2.83159,-0.0448 -7.75977,-4.60743 -6.53952,-6.05444 -11.63355,-8.23357 -15.66406,-6.70117 -3.86059,1.46779 -2.91503,4.47723 3.85351,12.25977 3.44786,3.9644 7.36086,8.78203 8.69532,10.70703 1.33445,1.925 5.26474,6.41041 8.73242,9.9668 l 6.30468,6.46484 v 6.55664 c -2.30909,25.39277 -6.00434,96.24341 -16.22623,177.11735 l -5.75,0.29883 -5.16765,-1.73744 c -3.00252,-76.54636 -5.61517,-148.95463 -7.90852,-225.2567 -0.90374,-4.675 -1.69215,-13.225 -1.75195,-19 -0.14206,-13.72244 -0.15824,-10.75591 10.6875,-21.03711 7.81899,-7.60723 11.25589,-11.64851 20.61718,-22.16797 5.54786,-5.56338 10.08789,-10.63209 10.08789,-11.26367 0,-5.50023 -9.18577,-6.77457 -15.71679,-2.17969 -2.08079,1.46394 -6.16222,4.68499 -9.07031,7.15625 -6.10116,5.18466 -8.46474,5.56896 -10.94141,1.78125 -1.59389,-2.43764 -1.75069,-5.2416 -1.55664,-27.75 0.23495,-27.25338 -0.35987,-31.96456 -4.26563,-33.74414 -5.97852,-2.724 -9.35261,2.66043 -9.52929,15.20508 -0.1031,7.32028 -2.5814,26.14668 -2.83008,21.5 -0.0883,-1.65 -0.82761,-6.6 -1.64258,-11 -0.81497,-4.4 -1.91052,-11.6 -2.43555,-16 -0.79918,-6.69749 -1.37534,-8.36633 -3.53906,-10.25 -1.60321,-1.39572 -3.22777,-2.0984 -4.70312,-2.19141 z"
       id="path3440"
       inkscape:connector-curvature="0"
       sodipodi:nodetypes="scssssssssssssscccscccccccsssssscccssssccsscccsssscccccccscccssssccsssssssscssssssccccccccscccsscssssccssssssssssssssccccccccccsssssssssssssssssssssscccsccccccssssssccscsssssccssssscccccccsccsssssssssssss"
       inkscape:export-xdpi="114.54"
       inkscape:export-ydpi="114.54" />
    <g
       id="g1060"
       transform="translate(-71.60564,-74.94459)">
      <path
         style="fill:#ffffff;stroke:#000000;stroke-width:2.4375;stroke-linecap:butt;stroke-linejoin:round;stroke-miterlimit:4;stroke-dasharray:none;stroke-opacity:1"
         d="m 418.00994,620.46497 -0.39644,13.53166 34.74462,1.74714 0.77447,-13.9894 z"
         id="path875" />
      <rect
         style="fill:#ffffff;fill-opacity:0;stroke-width:2.4375;stroke-miterlimit:4;stroke-dasharray:none"
         id="rect877"
         width="5.4571285"
         height="16.791164"
         x="459.90512"
         y="608.17114"
         transform="rotate(2.1799191)" />
      <path
         style="fill:none;stroke:#000000;stroke-width:1.23335;stroke-linecap:butt;stroke-linejoin:miter;stroke-miterlimit:4;stroke-dasharray:none;stroke-opacity:1"
         d="m 436.30578,625.21967 -0.20726,5.44497"
         id="path890" />
      <path
         style="fill:none;stroke:#000000;stroke-width:1.23335;stroke-linecap:butt;stroke-linejoin:miter;stroke-miterlimit:4;stroke-dasharray:none;stroke-opacity:1"
         d="m 439.63183,625.34627 -0.20726,5.44498"
         id="path890-8" />
      <path
         style="fill:none;stroke:#000000;stroke-width:1.23335;stroke-linecap:butt;stroke-linejoin:miter;stroke-miterlimit:4;stroke-dasharray:none;stroke-opacity:1"
         d="m 441.89209,625.43231 -0.20727,5.44498"
         id="path890-2" />
      <path
         style="fill:none;stroke:#000000;stroke-width:1.875;stroke-linecap:butt;stroke-linejoin:miter;stroke-miterlimit:4;stroke-dasharray:none;stroke-opacity:1"
         d="m 444.87446,625.54583 -0.20727,5.44498"
         id="path890-4" />
      <path
         style="fill:none;stroke:#000000;stroke-width:1.23335;stroke-linecap:butt;stroke-linejoin:miter;stroke-miterlimit:4;stroke-dasharray:none;stroke-opacity:1"
         d="m 447.07209,625.62949 -0.20727,5.44497"
         id="path890-2-0" />
      <path
         style="fill:none;stroke:#000000;stroke-width:1.23335;stroke-linecap:butt;stroke-linejoin:miter;stroke-miterlimit:4;stroke-dasharray:none;stroke-opacity:1"
         d="m 433.75593,625.12261 -0.20726,5.44497"
         id="path890-2-0-3" />
    </g>
    <circle
       style="fill:none;fill-opacity:0;stroke:#000000;stroke-width:2.12824;stroke-linejoin:round;stroke-miterlimit:4;stroke-dasharray:none;stroke-opacity:1"
       id="path974"
       cx="257.88141"
       cy="655.69916"
       r="9.9815283" />
    <path
       d="m 257.0798,643.65605 c -0.11793,-1.55835 -0.18203,-4.185 0.45965,-7.43256 0.64941,-3.28664 1.87222,-6.46273 3.57339,-9.35568 0.24064,-0.42163 0.46778,-0.80173 0.66546,-1.12483 0.78674,-1.2859 1.57142,-2.42296 1.98457,-3.01494 a 1.7627933,1.7627933 90 0 1 2.89112,2.01772 c -0.40129,0.57499 -1.13773,1.64308 -1.86833,2.83721 -0.18435,0.30131 -0.39467,0.65341 -0.61626,1.04193 -0.004,0.007 -0.008,0.0139 -0.0121,0.0208 -1.50841,2.56281 -2.58793,5.37015 -3.15916,8.26118 -0.56242,2.84638 -0.50467,5.13739 -0.40283,6.48311 a 1.7627933,1.7627933 90 0 1 -3.51554,0.26604 z"
       id="path-1"
       inkscape:path-effect="#path-effect977;#path-effect979"
       inkscape:original-d="m 258.83757,643.52303 c -0.5527,-8.69615 2.82215,-14.69937 6.37086,-19.78613"
       style="fill:#000000;fill-opacity:1;fill-rule:nonzero;stroke:#000000;stroke-width:0.362479;stroke-linecap:butt;stroke-linejoin:miter;stroke-miterlimit:4;stroke-dasharray:none;stroke-opacity:1" />
    <g
       id="g1217"
       transform="matrix(-0.2175979,0.07307301,-0.05009719,-0.21217779,382.36803,699.81362)">
      <g
         id="_x35_95_x2C__Healthcare_x2C__medical_x2C__stethoscope">
        <g
           id="g1188">
          <g
             id="g1186">
            <g
               id="g1184">
              <g
                 id="g1162">
                <path
                   d="m 146.347,270.956 c -71.682,0 -56.779086,41.59277 -42.84823,-36.38201 C 114.50586,172.96434 85.693,250.956 146.347,250.956 c 60.654,0 110,-44.859 110,-100 l 0,-100 h -30 c -5.523,0 -10,-4.477 -10,-10 0,-5.523 4.477,-10 10,-10 h 40 c 5.522,0 10,4.477 10,10 l 0,110 c 0.001,66.169 -58.317,120 -130,120 z"
                   id="path1160"
                   sodipodi:nodetypes="sssscssssscs" />
              </g>
              <g
                 id="g1166" />
              <g
                 id="g1170">
                <path
                   d="m 196.348,70.957 c -2.073,0 -4.123,-0.645 -5.848,-1.888 -2.607,-1.879 -4.153,-4.898 -4.153,-8.112 v -40 c 0,-3.214 1.545,-6.233 4.153,-8.112 2.608,-1.88 5.961,-2.391 9.009,-1.375 l 30,10 c 4.083,1.361 6.838,5.183 6.838,9.487 v 20 c 0,4.304 -2.754,8.125 -6.838,9.487 l -30,10 c -1.032,0.344 -2.1,0.513 -3.161,0.513 z m 9.999,-36.126 v 12.252 l 10,-3.333 v -5.585 z"
                   id="path1168" />
              </g>
              <g
                 id="g1174">
                <path
                   d="M 253.36242,500.88992 C 252.52298,567.47751 138.9183,395.1875 136.348,340.956 l 0,-80 c 0,-5.523 4.477,-10 10,-10 5.523,0 10,4.477 10,10 l 0,80 c 0,75.53315 97.01442,159.93392 97.01442,159.93392 z"
                   id="path1172"
                   sodipodi:nodetypes="scsssss" />
              </g>
              <g
                 id="g1178" />
              <g
                 id="g1182" />
            </g>
          </g>
        </g>
      </g>
      <g
         id="Layer_1" />
    </g>
    <g
       id="g1319"
       transform="matrix(0.19770771,-0.37185659,0.36937063,0.19870574,432.51989,594.99981)">
      <path
         d="M 62.12,128 H 9.88 C 4.4257115,127.99449 0.00551217,123.57429 0,118.12 L 1.7848059,56.185734 C 1.7903181,50.731445 66.999995,55.421202 72.454284,55.41569 L 72,118.12 c -0.0055,5.45429 -4.425712,9.87449 -9.88,9.88 z M 66.669341,60.301255 C 63.42419,60.30676 7.4416777,56.944833 7.4361727,60.189984 L 4,118.12 c 0.0055,3.24515 2.6348486,5.8745 5.88,5.88 h 52.24 c 3.245151,-0.005 5.874495,-2.63485 5.88,-5.88 z"
         id="path1276"
         sodipodi:nodetypes="cccccccccccccc" />
      <path
         d="M 22.5,87 A 9.5,9.5 0 1 1 32,77.5 9.51,9.51 0 0 1 22.5,87 Z m 0,-15 A 5.5,5.5 0 1 0 28,77.5 5.51,5.51 0 0 0 22.5,72 Z"
         id="path1286" />
      <path
         d="M 49.5,87 A 9.5,9.5 0 1 1 59,77.5 9.51,9.51 0 0 1 49.5,87 Z m 0,-15 A 5.5,5.5 0 1 0 55,77.5 5.51,5.51 0 0 0 49.5,72 Z"
         id="path1288" />
      <path
         d="m 22.5,114 a 9.5,9.5 0 1 1 9.5,-9.5 9.51,9.51 0 0 1 -9.5,9.5 z m 0,-15 A 5.5,5.5 0 1 0 28,104.5 5.51,5.51 0 0 0 22.5,99 Z"
         id="path1290" />
      <path
         d="m 49.5,114 a 9.5,9.5 0 1 1 9.5,-9.5 9.51,9.51 0 0 1 -9.5,9.5 z m 0,-15 A 5.5,5.5 0 1 0 55,104.5 5.51,5.51 0 0 0 49.5,99 Z"
         id="path1292" />
    </g>
    <g
       id="g1417"
       transform="matrix(0.4401199,0,0,0.4641293,366.14026,525.99613)">
      <path
         d="M 110,100 H 86 a 10,10 0 0 0 0,20 h 24 a 10,10 0 0 0 0,-20 z m -30,10 a 6,6 0 0 1 6,-6 h 10 v 12 H 86 a 6,6 0 0 1 -6,-6 z m 30,6 h -10 v -12 h 10 a 6,6 0 0 1 0,12 z"
         id="path1394" />
      <path
         d="m 87.51,95.48 a 10,10 0 0 0 7.08,-2.92 l 17,-17 A 10.005583,10.005583 0 0 0 97.41,61.44 l -17,17 a 10,10 0 0 0 7.07,17.07 z m 12.73,-31.21 a 6.0033366,6.0033366 0 0 1 8.49,8.49 l -7.07,7.07 -8.49,-8.49 z m -17,17 7.07,-7.07 8.49,8.49 -7.07,7.07 a 6.0033366,6.0033366 0 0 1 -8.49,-8.49 z"
         id="path1396" />
    </g>
    <g
       id="g1514"
       transform="matrix(1.4228963,0,0,1.3652795,287.94955,305.322)">
      <polygon
         class="cls-1"
         points="70.06,49.18 63.62,38.84 57.17,49.18 "
         id="polygon1480" />
      <line
         class="cls-1"
         x1="50"
         x2="50"
         y1="94.139999"
         y2="83.32"
         id="line1482" />
      <line
         class="cls-1"
         x1="50"
         x2="50"
         y1="16.68"
         y2="5.8600001"
         id="line1484" />
      <line
         class="cls-1"
         x1="94.139999"
         x2="83.32"
         y1="50"
         y2="50"
         id="line1486" />
      <line
         class="cls-1"
         x1="16.68"
         x2="5.8600001"
         y1="50"
         y2="50"
         id="line1488" />
      <line
         class="cls-1"
         x1="81.209999"
         x2="73.559998"
         y1="81.209999"
         y2="73.559998"
         id="line1490" />
      <line
         class="cls-1"
         x1="26.440001"
         x2="18.790001"
         y1="26.440001"
         y2="18.790001"
         id="line1492" />
      <line
         class="cls-1"
         x1="81.209999"
         x2="73.559998"
         y1="18.790001"
         y2="26.440001"
         id="line1494" />
      <line
         class="cls-1"
         x1="26.440001"
         x2="18.790001"
         y1="73.559998"
         y2="81.209999"
         id="line1496" />
    </g>
    <rect
       style="fill:#ffffff;fill-opacity:1;stroke:none;stroke-width:1.17855;stroke-linejoin:round;stroke-miterlimit:4;stroke-dasharray:none;stroke-opacity:1"
       id="rect1516"
       width="36.059643"
       height="51.199524"
       x="362.18317"
       y="354.55243" />
    <text
       xml:space="preserve"
       style="font-style:normal;font-weight:normal;font-size:56.25px;line-height:1.25;font-family:sans-serif;fill:#0d0d0d;fill-opacity:1;stroke:none;stroke-width:0.9375"
       x="329.5549"
       y="394.03427"
       id="text1421"><tspan
         sodipodi:role="line"
         id="tspan1419"
         x="329.5549"
         y="394.03427"
         style="font-size:56.25px;fill:#0d0d0d;fill-opacity:1;stroke-width:0.9375">AI</tspan></text>
  </g>
</svg>
